IKResults
version=1
nRows=8
nColumns=40
inDegrees=yes

Units are S.I. units (second, meters, Newtons, ...)
If the header above contains a line with 'inDegrees', this indicates whether rotational values are in degrees (yes) or radians (no).

endheader
time	pelvis_tilt	pelvis_list	pelvis_rotation	pelvis_tx	pelvis_ty	pelvis_tz	hip_flexion_r	hip_adduction_r	hip_rotation_r	knee_angle_r	knee_angle_r_beta	ankle_angle_r	subtalar_angle_r	mtp_angle_r	hip_flexion_l	hip_adduction_l	hip_rotation_l	knee_angle_l	knee_angle_l_beta	ankle_angle_l	subtalar_angle_l	mtp_angle_l	lumbar_extension	lumbar_bending	lumbar_rotation	arm_flex_r	arm_add_r	arm_rot_r	elbow_flex_r	pro_sup_r	wrist_flex_r	wrist_dev_r	arm_flex_l	arm_add_l	arm_rot_l	elbow_flex_l	pro_sup_l	wrist_flex_l	wrist_dev_l
      7.43500000	     15.01088447	     -2.36134418	      4.65992774	     -0.84252745	      0.52112581	      0.28153500	     45.00000012	     -9.99999999	      0.00000000	     60.00014062	      1.04720001	     -4.99999985	      0.00000000	      0.00000000	     45.00000012	     -9.99999999	      0.00000000	     60.00014062	      1.04720001	     -4.99999985	      0.00000000	      0.00000000	    -28.17512735	      4.58896666	     -3.50526259	    -14.58199501	    -31.01731009	    -12.19908772	    120.29952415	     89.12089363	      0.00000000	      0.00000000	     -8.74912263	    -26.75558154	    -11.51986685	    117.82604117	     89.44874395	      0.00000000	      0.00000000
      7.44000000	     14.90586561	     -2.43659833	      4.68881135	     -0.84264191	      0.52086532	      0.28159776	     45.00000012	     -9.99999999	      0.00000000	     60.00014062	      1.04720001	     -4.99999985	      0.00000000	      0.00000000	     45.00000012	     -9.99999999	      0.00000000	     60.00014062	      1.04720001	     -4.99999985	      0.00000000	      0.00000000	    -28.06177352	      4.66423327	     -3.52424651	    -14.55059009	    -31.00161681	    -12.19007321	    120.28996458	     89.11251834	      0.00000000	      0.00000000	     -8.78481753	    -26.74657692	    -11.56508078	    117.84846045	     89.45371781	      0.00000000	      0.00000000
      7.44500000	     14.90964358	     -2.34178257	      4.69463017	     -0.84261518	      0.52087548	      0.28145853	     45.00000012	     -9.99999999	      0.00000000	     60.00014062	      1.04720001	     -4.99999985	      0.00000000	      0.00000000	     45.00000012	     -9.99999999	      0.00000000	     60.00014062	      1.04720001	     -4.99999985	      0.00000000	      0.00000000	    -28.06655969	      4.58140659	     -3.57514373	    -14.56195465	    -30.97471055	    -12.21608873	    120.30043871	     89.12083753	      0.00000000	      0.00000000	     -8.78608868	    -26.73755374	    -11.59165789	    117.84951917	     89.44714927	      0.00000000	      0.00000000
      7.45000000	     15.01530486	     -2.38992066	      4.67182554	     -0.84252192	      0.52111131	      0.28155094	     45.00000012	     -9.99999999	      0.00000000	     60.00014062	      1.04720001	     -4.99999985	      0.00000000	      0.00000000	     45.00000012	     -9.99999999	      0.00000000	     60.00014062	      1.04720001	     -4.99999985	      0.00000000	      0.00000000	    -28.16989445	      4.62470798	     -3.51147703	    -14.55087068	    -30.98841026	    -12.20063460	    120.30427362	     89.12291695	      0.00000000	      0.00000000	     -8.74723682	    -26.75021475	    -11.52994973	    117.81589321	     89.44799009	      0.00000000	      0.00000000
      7.45500000	     15.01313103	     -2.38594767	      4.67230145	     -0.84250529	      0.52110472	      0.28157306	     45.00000012	     -9.99999999	      0.00000000	     60.00014062	      1.04720001	     -4.99999985	      0.00000000	      0.00000000	     45.00000012	     -9.99999999	      0.00000000	     60.00014062	      1.04720001	     -4.99999985	      0.00000000	      0.00000000	    -28.16155296	      4.61941574	     -3.51156470	    -14.55577829	    -30.98551466	    -12.20355380	    120.29612665	     89.12268052	      0.00000000	      0.00000000	     -8.74866872	    -26.76256568	    -11.52336839	    117.81690825	     89.44857319	      0.00000000	      0.00000000
      7.46000000	     15.01688848	     -2.39404529	      4.68015152	     -0.84250932	      0.52109687	      0.28155240	     45.00000012	     -9.99999999	      0.00000000	     60.00014062	      1.04720001	     -4.99999985	      0.00000000	      0.00000000	     45.00000012	     -9.99999999	      0.00000000	     60.00014062	      1.04720001	     -4.99999985	      0.00000000	      0.00000000	    -28.16175455	      4.63546147	     -3.48844790	    -14.59064266	    -30.98847758	    -12.23240494	    120.31498862	     89.12089751	      0.00000000	      0.00000000	     -8.70892387	    -26.77847333	    -11.47651740	    117.78336284	     89.44935959	      0.00000000	      0.00000000
      7.46500000	     15.01821737	     -2.40567988	      4.71815826	     -0.84242723	      0.52105999	      0.28155077	     45.00000012	     -9.99999999	      0.00000000	     60.00014062	      1.04720001	     -4.99999985	      0.00000000	      0.00000000	     45.00000012	     -9.99999999	      0.00000000	     60.00014062	      1.04720001	     -4.99999985	      0.00000000	      0.00000000	    -28.15615680	      4.65197967	     -3.55191703	    -14.57912838	    -30.98118776	    -12.21139029	    120.30958952	     89.10505337	      0.00000000	      0.00000000	     -8.79674693	    -26.75014116	    -11.57213452	    117.85057441	     89.45619044	      0.00000000	      0.00000000
      7.47000000	     14.90892552	     -2.38149366	      4.68096721	     -0.84259915	      0.52082646	      0.28154502	     45.00000012	     -9.99999999	      0.00000000	     60.00014062	      1.04720001	     -4.99999985	      0.00000000	      0.00000000	     45.00000012	     -9.99999999	      0.00000000	     60.00014062	      1.04720001	     -4.99999985	      0.00000000	      0.00000000	    -28.04791241	      4.61805303	     -3.54923936	    -14.53279811	    -30.97966246	    -12.18506999	    120.29287077	     89.13632977	      0.00000000	      0.00000000	     -8.78329718	    -26.76211485	    -11.56224875	    117.81465385	     89.44267644	      0.00000000	      0.00000000
